HIERARCHY
ROOT hip
{
  OFFSET 0 0 0
  CHANNELS 6 Xposition Yposition Zposition Zrotation Yrotation Xrotation
  JOINT abdomen
  {
    OFFSET 0 20.6881 -0.73152
    CHANNELS 3 Zrotation Xrotation Yrotation
    JOINT chest
    {
      OFFSET 0 11.7043 -0.48768
      CHANNELS 3 Zrotation Xrotation Yrotation
      JOINT neck
      {
        OFFSET 0 22.1894 -2.19456
        CHANNELS 3 Zrotation Xrotation Yrotation
        JOINT head
        {
          OFFSET -0.24384 7.07133 1.2192
          CHANNELS 3 Zrotation Xrotation Yrotation
          JOINT leftEye
          {
            OFFSET 4.14528 8.04674 8.04672
            CHANNELS 3 Zrotation Xrotation Yrotation
            End Site
            {
              OFFSET 1 0 0
            }
          }
          JOINT rightEye
          {
            OFFSET -3.6576 8.04674 8.04672
            CHANNELS 3 Zrotation Xrotation Yrotation
            End Site
            {
              OFFSET 1 0 0
            }
          }
        }
      }
      JOINT rCollar
      {
        OFFSET -2.68224 19.2634 -4.8768
        CHANNELS 3 Zrotation Xrotation Yrotation
        JOINT rShldr
        {
          OFFSET -8.77824 -1.95073 1.46304
          CHANNELS 3 Zrotation Xrotation Yrotation
          JOINT rForeArm
          {
            OFFSET -28.1742 -1.7115 0.48768
            CHANNELS 3 Zrotation Xrotation Yrotation
            JOINT rHand
            {
              OFFSET -22.5879 0.773209 7.07136
              CHANNELS 3 Zrotation Xrotation Yrotation
              JOINT rThumb1
              {
                OFFSET -1.2192 -0.487915 3.41376
                CHANNELS 3 Zrotation Xrotation Yrotation
                JOINT rThumb2
                {
                  OFFSET -3.37035 -0.52449 3.41376
                  CHANNELS 3 Zrotation Xrotation Yrotation
                  End Site
                  {
                    OFFSET -1.78271 -1.18214 1.43049
                  }
                }
              }
              JOINT rIndex1
              {
                OFFSET -7.75947 0.938293 5.60832
                CHANNELS 3 Zrotation Xrotation Yrotation
                JOINT rIndex2
                {
                  OFFSET -2.54057 -0.884171 1.56538
                  CHANNELS 3 Zrotation Xrotation Yrotation
                  End Site
                  {
                    OFFSET -1.62519 -0.234802 1.16502
                  }
                }
              }
              JOINT rMid1
              {
                OFFSET -8.24714 1.18213 3.41376
                CHANNELS 3 Zrotation Xrotation Yrotation
                JOINT rMid2
                {
                  OFFSET -3.10165 -0.590103 1.0647
                  CHANNELS 3 Zrotation Xrotation Yrotation
                  End Site
                  {
                    OFFSET -2.48547 -0.328903 0.83742
                  }
                }
              }
              JOINT rRing1
              {
                OFFSET -8.82822 0.546677 1.51678
                CHANNELS 3 Zrotation Xrotation Yrotation
                JOINT rRing2
                {
                  OFFSET -2.60934 -0.819778 -0.0198488
                  CHANNELS 3 Zrotation Xrotation Yrotation
                  End Site
                  {
                    OFFSET -2.33842 -0.294052 0.168128
                  }
                }
              }
              JOINT rPinky1
              {
                OFFSET -8.27202 -0.0477905 -0.4584
                CHANNELS 3 Zrotation Xrotation Yrotation
                JOINT rPinky2
                {
                  OFFSET -1.82734 -0.647385 -0.700984
                  CHANNELS 3 Zrotation Xrotation Yrotation
                  End Site
                  {
                    OFFSET -1.69225 -0.51767 -0.607171
                  }
                }
              }
            }
          }
        }
      }
      JOINT lCollar
      {
        OFFSET 2.68224 19.2634 -4.8768
        CHANNELS 3 Zrotation Xrotation Yrotation
        JOINT lShldr
        {
          OFFSET 8.77824 -1.95073 1.46304
          CHANNELS 3 Zrotation Xrotation Yrotation
          JOINT lForeArm
          {
            OFFSET 28.1742 -1.7115 0.48768
            CHANNELS 3 Zrotation Xrotation Yrotation
            JOINT lHand
            {
              OFFSET 22.5879 0.773209 7.07136
              CHANNELS 3 Zrotation Xrotation Yrotation
              JOINT lThumb1
              {
                OFFSET 1.2192 -0.487915 3.41376
                CHANNELS 3 Zrotation Xrotation Yrotation
                JOINT lThumb2
                {
                  OFFSET 3.37035 -0.52449 3.41376
                  CHANNELS 3 Zrotation Xrotation Yrotation
                  End Site
                  {
                    OFFSET 1.78271 -1.18214 1.43049
                  }
                }
              }
              JOINT lIndex1
              {
                OFFSET 7.75947 0.938293 5.60832
                CHANNELS 3 Zrotation Xrotation Yrotation
                JOINT lIndex2
                {
                  OFFSET 2.54057 -0.884171 1.56538
                  CHANNELS 3 Zrotation Xrotation Yrotation
                  End Site
                  {
                    OFFSET 1.62519 -0.234802 1.16502
                  }
                }
              }
              JOINT lMid1
              {
                OFFSET 8.24714 1.18213 3.41376
                CHANNELS 3 Zrotation Xrotation Yrotation
                JOINT lMid2
                {
                  OFFSET 3.10165 -0.590103 1.0647
                  CHANNELS 3 Zrotation Xrotation Yrotation
                  End Site
                  {
                    OFFSET 2.48547 -0.328903 0.83742
                  }
                }
              }
              JOINT lRing1
              {
                OFFSET 8.82822 0.546677 1.51678
                CHANNELS 3 Zrotation Xrotation Yrotation
                JOINT lRing2
                {
                  OFFSET 2.60934 -0.819778 -0.0198488
                  CHANNELS 3 Zrotation Xrotation Yrotation
                  End Site
                  {
                    OFFSET 2.33842 -0.294052 0.168128
                  }
                }
              }
              JOINT lPinky1
              {
                OFFSET 8.27202 -0.0477905 -0.4584
                CHANNELS 3 Zrotation Xrotation Yrotation
                JOINT lPinky2
                {
                  OFFSET 1.82734 -0.647385 -0.700984
                  CHANNELS 3 Zrotation Xrotation Yrotation
                  End Site
                  {
                    OFFSET 1.69225 -0.51767 -0.607171
                  }
                }
              }
            }
          }
        }
      }
    }
  }
  JOINT rButtock
  {
    OFFSET -8.77824 4.35084 1.2192
    CHANNELS 3 Zrotation Xrotation Yrotation
    JOINT rThigh
    {
      OFFSET 0 -1.70687 -2.19456
      CHANNELS 3 Zrotation Xrotation Yrotation
      JOINT rShin
      {
        OFFSET 0 -36.8199 0.73152
        CHANNELS 3 Zrotation Xrotation Yrotation
        JOINT rFoot
        {
          OFFSET 0.73152 -45.1104 -5.12064
          CHANNELS 3 Zrotation Xrotation Yrotation
          End Site
          {
            OFFSET -1.1221 -3.69964 12.103
          }
        }
      }
    }
  }
  JOINT lButtock
  {
    OFFSET 8.77824 4.35084 1.2192
    CHANNELS 3 Zrotation Xrotation Yrotation
    JOINT lThigh
    {
      OFFSET 0 -1.70687 -2.19456
      CHANNELS 3 Zrotation Xrotation Yrotation
      JOINT lShin
      {
        OFFSET 0 -36.8199 0.73152
        CHANNELS 3 Zrotation Xrotation Yrotation
        JOINT lFoot
        {
          OFFSET -0.73152 -45.1104 -5.12064
          CHANNELS 3 Zrotation Xrotation Yrotation
          End Site
          {
            OFFSET 1.1221 -3.69964 12.103
          }
        }
      }
    }
  }
}
MOTION
Frames:	6
Frame Time:	0.03333
-0.07689999765716493 59.67140197753906 0.7689999882131815 6.898904800415039 26.143795013427734 -4.558343410491943 -17.368906021118164 19.025394439697266 -2.503265142440796 9.178816795349121 -8.270544052124023 -0.6925446391105652 -6.9803466796875 17.560606002807617 -10.44080638885498 10.758292198181152 -22.527786254882812 -18.409605026245117 -0.0 0.0 -0.0 -0.0 0.0 -0.0 -0.0 0.0 -0.0 66.46209716796875 26.638591766357422 -9.2114839553833 -20.172494888305664 -13.228194236755371 39.108211517333984 -0.007937041111290455 2.542130708694458 0.35771793127059937 -0.0 0.0 -0.0 -0.0 0.0 -0.0 -0.0 0.0 -0.0 7.730876445770264 5.474895000457764 0.41732463240623474 -0.0 0.0 -0.0 2.9054994583129883 0.9650753736495972 0.10300876200199127 -0.0 0.0 -0.0 10.278595924377441 0.7317469120025635 0.026285577565431595 -0.0 0.0 -0.0 2.221662759780884 -0.7335850596427917 -0.20831839740276337 -0.0 0.0 -0.0 -68.20679473876953 31.051992416381836 -14.756096839904785 18.19698715209961 -10.899117469787598 -34.46659851074219 0.3193615972995758 -16.22051239013672 2.3399293422698975 -0.0 0.0 -0.0 -0.0 0.0 -0.0 -0.0 0.0 -0.0 -7.730876445770264 5.474895000457764 -0.41732463240623474 -0.0 0.0 -0.0 -2.9054994583129883 0.9650753736495972 -0.10300876200199127 -0.0 0.0 -0.0 -10.278595924377441 0.7317469120025635 -0.026285577565431595 -0.0 0.0 -0.0 -2.221662759780884 -0.7335850596427917 0.20831839740276337 -0.0 0.0 -0.0 -45.33340835571289 -51.7366943359375 -33.75731658935547 -1.2005369663238525 61.50748825073242 1.532406210899353 -0.1169939711689949 6.922850131988525 10.290485382080078 -0.0 0.0 -0.0 12.26138973236084 2.5936665534973145 5.22519063949585 0.3571380376815796 56.50990295410156 -3.3373794555664062 17.35761260986328 -25.760194778442383 34.63399887084961
-0.05809999711345881 59.73600149154663 1.4560000039637089 7.107778072357178 26.094602584838867 -3.674177646636963 -17.117197036743164 18.34160614013672 -2.7093963623046875 9.137516021728516 -8.225713729858398 -0.7273589968681335 -6.941549301147461 17.579496383666992 -10.50689697265625 10.726494789123535 -22.707998275756836 -18.53400421142578 -0.0 0.0 -0.0 -0.0 0.0 -0.0 -0.0 0.0 -0.0 65.55780792236328 26.157115936279297 -8.147963523864746 -20.391990661621094 -13.514411926269531 39.63499069213867 0.007679997012019157 2.2675225734710693 0.3188915550708771 -0.0 0.0 -0.0 -0.0 0.0 -0.0 -0.0 0.0 -0.0 7.730876445770264 5.474895000457764 0.41732463240623474 -0.0 0.0 -0.0 2.9054994583129883 0.9650753736495972 0.10300876200199127 -0.0 0.0 -0.0 10.278595924377441 0.7317469120025635 0.026285577565431595 -0.0 0.0 -0.0 2.221662759780884 -0.7335850596427917 -0.20831839740276337 -0.0 0.0 -0.0 -68.61459350585938 30.944791793823242 -14.217392921447754 17.886322021484375 -10.566088676452637 -33.762794494628906 0.4196801781654358 -17.672260284423828 2.5704715251922607 -0.0 0.0 -0.0 -0.0 0.0 -0.0 -0.0 0.0 -0.0 -7.730876445770264 5.474895000457764 -0.41732463240623474 -0.0 0.0 -0.0 -2.9054994583129883 0.9650753736495972 -0.10300876200199127 -0.0 0.0 -0.0 -10.278595924377441 0.7317469120025635 -0.026285577565431595 -0.0 0.0 -0.0 -2.221662759780884 -0.7335850596427917 0.20831839740276337 -0.0 0.0 -0.0 -46.675804138183594 -51.9734992980957 -35.720794677734375 -1.259060263633728 62.302398681640625 1.5957493782043457 -0.02826148085296154 6.170551776885986 10.599605560302734 -0.0 0.0 -0.0 12.436776161193848 2.8730480670928955 6.0362348556518555 0.319065660238266 55.47919845581055 -3.3001413345336914 17.163917541503906 -25.35189437866211 34.75929641723633
-0.003699996159411967 59.873902797698975 2.0659999921917915 7.7809295654296875 25.926498413085938 -2.816420555114746 -17.640199661254883 17.80940055847168 -2.6749377250671387 9.162760734558105 -8.235068321228027 -0.7308689951896667 -6.889623165130615 17.543296813964844 -10.587312698364258 10.568700790405273 -22.67709732055664 -18.717599868774414 -0.0 0.0 -0.0 -0.0 0.0 -0.0 -0.0 0.0 -0.0 65.05259704589844 25.465499877929688 -7.440560817718506 -20.771297454833984 -14.01399040222168 40.58600616455078 -0.0036471353378146887 1.7242487668991089 0.2423657327890396 -0.0 0.0 -0.0 -0.0 0.0 -0.0 -0.0 0.0 -0.0 7.730876445770264 5.474895000457764 0.41732463240623474 -0.0 0.0 -0.0 2.9054994583129883 0.9650753736495972 0.10300876200199127 -0.0 0.0 -0.0 10.278595924377441 0.7317469120025635 0.026285577565431595 -0.0 0.0 -0.0 2.221662759780884 -0.7335850596427917 -0.20831839740276337 -0.0 0.0 -0.0 -68.41561126708984 31.445096969604492 -14.172494888305664 17.45220184326172 -10.10938835144043 -32.80280303955078 0.3560285270214081 -16.395402908325195 2.3729147911071777 -0.0 0.0 -0.0 -0.0 0.0 -0.0 -0.0 0.0 -0.0 -7.730876445770264 5.474895000457764 -0.41732463240623474 -0.0 0.0 -0.0 -2.9054994583129883 0.9650753736495972 -0.10300876200199127 -0.0 0.0 -0.0 -10.278595924377441 0.7317469120025635 -0.026285577565431595 -0.0 0.0 -0.0 -2.221662759780884 -0.7335850596427917 0.20831839740276337 -0.0 0.0 -0.0 -48.330596923828125 -52.09339141845703 -37.37130355834961 -1.308014988899231 62.96979904174805 1.6618000268936157 0.036890510469675064 5.519510746002197 11.146108627319336 -0.0 0.0 -0.0 11.731088638305664 3.5491836071014404 6.770776271820068 0.2725163698196411 54.10719299316406 -3.254594326019287 17.2925968170166 -25.20889663696289 35.18129348754883
0.012700003571808338 60.01629829406738 2.621999988332391 8.50296688079834 25.7785701751709 -2.0633530616760254 -18.049800872802734 17.425193786621094 -2.5821914672851562 9.151971817016602 -8.360918998718262 -0.7089083194732666 -6.8851118087768555 17.45530891418457 -10.636387825012207 10.435896873474121 -22.525493621826172 -18.839208602905273 -0.0 0.0 -0.0 -0.0 0.0 -0.0 -0.0 0.0 -0.0 64.62989807128906 25.161401748657227 -6.865931510925293 -21.17270278930664 -14.563188552856445 41.604393005371094 0.012966656126081944 0.9141957759857178 0.12810488045215607 -0.0 0.0 -0.0 -0.0 0.0 -0.0 -0.0 0.0 -0.0 7.730876445770264 5.474895000457764 0.41732463240623474 -0.0 0.0 -0.0 2.9054994583129883 0.9650753736495972 0.10300876200199127 -0.0 0.0 -0.0 10.278595924377441 0.7317469120025635 0.026285577565431595 -0.0 0.0 -0.0 2.221662759780884 -0.7335850596427917 -0.20831839740276337 -0.0 0.0 -0.0 -68.3462905883789 31.58379364013672 -14.105497360229492 16.946504592895508 -9.599322319030762 -31.692102432250977 0.1760338544845581 -12.5263090133667 1.785161018371582 -0.0 0.0 -0.0 -0.0 0.0 -0.0 -0.0 0.0 -0.0 -7.730876445770264 5.474895000457764 -0.41732463240623474 -0.0 0.0 -0.0 -2.9054994583129883 0.9650753736495972 -0.10300876200199127 -0.0 0.0 -0.0 -10.278595924377441 0.7317469120025635 -0.026285577565431595 -0.0 0.0 -0.0 -2.221662759780884 -0.7335850596427917 0.20831839740276337 -0.0 0.0 -0.0 -49.61699676513672 -52.24039840698242 -38.647708892822266 -1.3552701473236084 63.586509704589844 1.726422905921936 0.1135777160525322 4.961245536804199 11.624798774719238 -0.0 0.0 -0.0 11.069695472717285 4.365941047668457 6.938397407531738 0.2260124385356903 52.54999923706055 -3.187652349472046 17.065887451171875 -24.708900451660156 35.373291015625
0.008300003537442535 60.0970983505249 3.1349999830126762 8.89169692993164 25.507408142089844 -1.557068943977356 -18.345487594604492 17.18890380859375 -2.431180953979492 9.105531692504883 -8.603350639343262 -0.6612040400505066 -6.927983283996582 17.315486907958984 -10.654312133789062 10.32859992980957 -22.253494262695312 -18.89889144897461 -0.0 0.0 -0.0 -0.0 0.0 -0.0 -0.0 0.0 -0.0 64.27439880371094 25.247896194458008 -6.416619777679443 -21.590713500976562 -15.15568733215332 42.69300079345703 0.01396010909229517 -0.16313184797763824 -0.019762488082051277 -0.0 0.0 -0.0 -0.0 0.0 -0.0 -0.0 0.0 -0.0 7.730876445770264 5.474895000457764 0.41732463240623474 -0.0 0.0 -0.0 2.9054994583129883 0.9650753736495972 0.10300876200199127 -0.0 0.0 -0.0 10.278595924377441 0.7317469120025635 0.026285577565431595 -0.0 0.0 -0.0 2.221662759780884 -0.7335850596427917 -0.20831839740276337 -0.0 0.0 -0.0 -68.40550231933594 31.360706329345703 -14.016404151916504 16.36139488220215 -9.030167579650879 -30.432497024536133 0.04511169344186783 -6.05891227722168 0.8523816466331482 -0.0 0.0 -0.0 -0.0 0.0 -0.0 -0.0 0.0 -0.0 -7.730876445770264 5.474895000457764 -0.41732463240623474 -0.0 0.0 -0.0 -2.9054994583129883 0.9650753736495972 -0.10300876200199127 -0.0 0.0 -0.0 -10.278595924377441 0.7317469120025635 -0.026285577565431595 -0.0 0.0 -0.0 -2.221662759780884 -0.7335850596427917 0.20831839740276337 -0.0 0.0 -0.0 -50.531700134277344 -52.430091857910156 -39.5514030456543 -1.400028944015503 64.1527099609375 1.7886905670166016 0.1971503496170044 4.495053768157959 12.035804748535156 -0.0 0.0 -0.0 10.475785255432129 5.326478958129883 6.538326263427734 0.18382175266742706 50.80758285522461 -3.1034843921661377 16.485801696777344 -23.853904724121094 35.3433952331543
0.017200003640027717 60.138797760009766 3.587999986484647 9.142572402954102 25.20441436767578 -1.0382188558578491 -18.69410514831543 16.89669418334961 -2.4004504680633545 9.099785804748535 -8.772379875183105 -0.6476675868034363 -6.8807573318481445 17.172401428222656 -10.644908905029297 10.16769027709961 -22.24359893798828 -18.90230369567871 -0.0 0.0 -0.0 -0.0 0.0 -0.0 -0.0 0.0 -0.0 63.889591217041016 25.553298950195312 -5.874070167541504 -21.946807861328125 -15.67686939239502 43.648902893066406 -0.000613339536357671 -0.7105180621147156 -0.0989174097776413 -0.0 0.0 -0.0 -0.0 0.0 -0.0 -0.0 0.0 -0.0 7.730876445770264 5.474895000457764 0.41732463240623474 -0.0 0.0 -0.0 2.9054994583129883 0.9650753736495972 0.10300876200199127 -0.0 0.0 -0.0 10.278595924377441 0.7317469120025635 0.026285577565431595 -0.0 0.0 -0.0 2.221662759780884 -0.7335850596427917 -0.20831839740276337 -0.0 0.0 -0.0 -68.59188079833984 30.89659881591797 -13.648002624511719 15.920502662658691 -8.611885070800781 -29.509096145629883 0.00013592117466032505 -0.3214253783226013 0.04845721647143364 -0.0 0.0 -0.0 -0.0 0.0 -0.0 -0.0 0.0 -0.0 -7.730876445770264 5.474895000457764 -0.41732463240623474 -0.0 0.0 -0.0 -2.9054994583129883 0.9650753736495972 -0.10300876200199127 -0.0 0.0 -0.0 -10.278595924377441 0.7317469120025635 -0.026285577565431595 -0.0 0.0 -0.0 -2.221662759780884 -0.7335850596427917 0.20831839740276337 -0.0 0.0 -0.0 -51.47370910644531 -52.710906982421875 -40.49421310424805 -1.445479393005371 64.70321655273438 1.8495289087295532 0.2783965468406677 4.06266450881958 12.377982139587402 -0.0 0.0 -0.0 10.038496017456055 6.138262748718262 6.455492973327637 0.14800716936588287 49.21219253540039 -3.0346548557281494 16.029691696166992 -23.371004104614258 35.162994384765625
